<svg height="511pt" viewBox="-11 0 511 511.99976" width="511pt" xmlns="http://www.w3.org/2000/svg"><path d="m439.503906 269.484375c-6.761718-7.71875-6.761718-19.25 0-26.972656l38.082032-43.480469c10.214843-11.664062 4.253906-30.011719-10.867188-33.445312l-56.367188-12.792969c-10.007812-2.269531-16.785156-11.601563-15.855468-21.820313l5.253906-57.5625c1.40625-15.441406-14.199219-26.78125-28.453125-20.667968l-53.121094 22.78125c-9.429687 4.042968-20.398437.480468-25.652343-8.335938l-29.582032-49.652344c-7.9375-13.324218-27.230468-13.324218-35.167968 0l-29.585938 49.652344c-5.253906 8.816406-16.222656 12.382812-25.652344 8.335938l-53.121094-22.78125c-14.25-6.113282-29.859374 5.226562-28.449218 20.667968l5.25 57.5625c.933594 10.21875-5.847656 19.550782-15.851563 21.820313l-56.367187 12.792969c-15.125 3.433593-21.085938 21.78125-10.867188 33.445312l38.078125 43.480469c6.761719 7.722656 6.761719 19.253906 0 26.972656l-38.078125 43.480469c-10.21875 11.667968-4.257812 30.015625 10.867188 33.449218l15.441406 3.503907 27.445312 6.226562 13.480469 3.058594c10.003907 2.273437 16.785157 11.601563 15.851563 21.824219l-5.25 57.558594c-1.410156 15.445312 14.195312 26.785156 28.449218 20.671874l53.121094-22.78125c9.433594-4.046874 20.402344-.480468 25.652344 8.332032l29.585938 49.65625c7.9375 13.320312 27.230468 13.320312 35.167968 0l29.582032-49.65625c5.253906-8.8125 16.222656-12.378906 25.652343-8.332032l53.121094 22.78125c14.253906 6.113282 29.859375-5.226562 28.453125-20.671874l-5.253906-57.558594c-.929688-10.21875 5.847656-19.550782 15.855468-21.824219l56.367188-12.789063c15.121094-3.433593 21.082031-21.78125 10.867188-33.449218zm0 0" fill="#f94530"/><g fill="#d93c2a"><path d="m244.035156 67.1875c5.253906 8.816406 16.222656 12.378906 25.652344 8.335938l22.144531-9.5-28.890625-48.492188c-7.9375-13.320312-27.230468-13.320312-35.167968 0l-6.660157 11.183594zm0 0"/><path d="m439.503906 269.484375c-6.761718-7.71875-6.761718-19.25 0-26.972656l38.082032-43.480469c10.214843-11.664062 4.253906-30.011719-10.867188-33.445312l-56.367188-12.792969c-10.007812-2.269531-16.785156-11.601563-15.855468-21.820313l5.253906-57.5625c1.40625-15.441406-14.199219-26.78125-28.453125-20.667968l-22.171875 9.507812c1.675781 3.269531 2.507812 7.070312 2.132812 11.160156l-5.25 57.5625c-.933593 10.21875 5.84375 19.550782 15.851563 21.820313l56.367187 12.792969c15.121094 3.433593 21.085938 21.78125 10.867188 33.445312l-38.082031 43.480469c-6.761719 7.722656-6.761719 19.253906 0 26.972656l38.082031 43.480469c10.21875 11.667968 4.253906 30.015625-10.867188 33.449218l-56.367187 12.789063c-10.007813 2.273437-16.785156 11.601563-15.851563 21.824219l5.25 57.558594c.375 4.09375-.457031 7.894531-2.132812 11.164062l22.171875 9.507812c14.253906 6.113282 29.859375-5.226562 28.453125-20.671874l-5.253906-57.558594c-.929688-10.21875 5.847656-19.550782 15.855468-21.824219l56.367188-12.789063c15.121094-3.433593 21.082031-21.78125 10.867188-33.449218zm0 0"/><path d="m269.6875 436.476562c-9.433594-4.046874-20.398438-.480468-25.652344 8.332032l-22.921875 38.476562 6.660157 11.179688c7.9375 13.320312 27.230468 13.320312 35.167968 0l28.890625-48.492188zm0 0"/></g><path d="m273.484375 113.582031c-9.1875-1.605469-18.5625-2.523437-28.128906-2.734375-80.164063 0-145.148438 64.988282-145.148438 145.152344s64.984375 145.148438 145.148438 145.148438c80.167969 0 145.152343-64.984376 145.152343-145.148438 0-70.542969-50.324218-129.320312-117.023437-142.417969zm0 0" fill="#ffb30f"/><path d="m229.320312 203.554688c0-20.078126-16.335937-36.414063-36.414062-36.414063s-36.414062 16.335937-36.414062 36.414063c0 20.078124 16.335937 36.414062 36.414062 36.414062s36.414062-16.335938 36.414062-36.414062zm-57.757812 0c0-11.769532 9.574219-21.347657 21.34375-21.347657s21.347656 9.578125 21.347656 21.347657c0 11.769531-9.578125 21.347656-21.347656 21.347656s-21.34375-9.578125-21.34375-21.347656zm0 0"/><path d="m261.394531 308.457031c0 20.078125 16.335938 36.414063 36.414063 36.414063s36.414062-16.335938 36.414062-36.414063-16.335937-36.414062-36.414062-36.414062-36.414063 16.335937-36.414063 36.414062zm57.761719 0c0 11.769531-9.574219 21.347657-21.347656 21.347657-11.769532 0-21.34375-9.578126-21.34375-21.347657s9.574218-21.34375 21.34375-21.34375c11.773437 0 21.347656 9.574219 21.347656 21.34375zm0 0"/><path d="m308.371094 182.40625-128.578125 128.578125c-2.941407 2.941406-2.941407 7.710937 0 10.652344 2.945312 2.945312 7.714843 2.941406 10.65625 0l128.578125-128.574219c2.941406-2.945312 2.941406-7.714844 0-10.65625s-7.710938-2.941406-10.65625 0zm0 0"/><path d="m245.359375 103.320312c-84.191406 0-152.6875 68.496094-152.6875 152.6875 0 84.1875 68.496094 152.683594 152.6875 152.683594 84.1875 0 152.683594-68.496094 152.683594-152.683594 0-72.800781-51.773438-135.804687-123.105469-149.8125-4.09375-.800781-8.042969 1.859376-8.847656 5.941407-.800782 4.082031 1.859375 8.042969 5.941406 8.84375 64.285156 12.625 110.941406 69.410156 110.941406 135.027343 0 75.878907-61.734375 137.617188-137.617187 137.617188-75.882813 0-137.617188-61.738281-137.617188-137.617188 0-75.882812 61.734375-137.621093 137.617188-137.621093 4.164062 0 7.535156-3.371094 7.535156-7.53125 0-4.164063-3.371094-7.535157-7.53125-7.535157zm0 0"/><path d="m445.171875 264.527344c-4.253906-4.855469-4.253906-12.183594 0-17.042969l38.082031-43.480469c13.96875-15.949218 5.839844-41.058594-14.867187-45.757812l-56.367188-12.792969c-6.300781-1.429687-10.605469-7.355469-10.019531-13.789063l5.253906-57.558593c1.929688-21.152344-19.445312-36.640625-38.925781-28.28125l-53.121094 22.78125c-5.933593 2.546875-12.902343.28125-16.207031-5.265625l-29.585938-49.65625c-8.636718-14.492188-24.15625-13.6953128-24.054687-13.667969-9.964844 0-18.957031 5.109375-24.058594 13.667969l-29.585937 49.65625c-3.304688 5.546875-10.273438 7.8125-16.207032 5.265625l-53.121093-22.78125c-19.519531-8.375-40.851563 7.171875-38.925781 28.28125l5.253906 57.558593c.585937 6.433594-3.722656 12.359376-10.019532 13.789063l-56.367187 12.792969c-20.675781 4.691406-28.859375 29.785156-14.867187 45.757812l38.082031 43.480469c4.257812 4.859375 4.257812 12.183594 0 17.042969l-38.082031 43.480468c-6.5625 7.496094-8.644532 17.628907-5.566407 27.105469 3.078125 9.472657 10.71875 16.449219 20.433594 18.652344l15.445313 3.507813c4.058593.914062 8.09375-1.625 9.015624-5.679688.921876-4.058594-1.621093-8.09375-5.679687-9.015625l-15.445313-3.503906c-4.488281-1.019531-8.015624-4.242188-9.4375-8.617188-1.421874-4.378906-.460937-9.058593 2.570313-12.519531l38.082031-43.480469c9.214844-10.519531 9.214844-26.382812 0-36.898437l-38.082031-43.480469c-6.453125-7.367187-2.695313-18.96875 6.867187-21.136719l56.367188-12.792968c13.636719-3.09375 22.960938-15.925782 21.6875-29.851563l-5.25-57.5625c-.890625-9.753906 8.964844-16.925781 17.980469-13.0625l53.117187 22.78125c12.851563 5.515625 27.9375.613281 35.09375-11.402344l29.585938-49.652343c5.011718-8.414063 17.203125-8.429688 22.222656 0l29.585938 49.652343c7.15625 12.015625 22.246093 16.917969 35.09375 11.402344l53.121093-22.78125c9.003907-3.855469 18.871094 3.292969 17.976563 13.0625l-5.25 57.5625c-1.269532 13.921875 8.054687 26.757813 21.6875 29.851563l56.367187 12.792968c9.550781 2.167969 13.328125 13.757813 6.867188 21.136719l-38.082031 43.480469c-9.210938 10.519531-9.210938 26.378906 0 36.898437l38.082031 43.480469c6.453125 7.367188 2.699219 18.964844-6.867188 21.136719l-56.367187 12.789062c-13.632813 3.097657-22.957032 15.929688-21.6875 29.855469l5.25 57.558594c.890625 9.753906-8.960938 16.929687-17.976563 13.066406l-53.121093-22.785156c-12.847657-5.511719-27.9375-.609375-35.09375 11.402344l-29.585938 49.65625c-5.019531 8.429687-17.210938 8.410156-22.222656 0l-29.585938-49.65625c-7.15625-12.011719-22.242187-16.917969-35.09375-11.402344l-53.121094 22.785156c-9 3.855469-18.871093-3.296875-17.976562-13.066406l5.25-57.558594c1.273438-13.925781-8.054688-26.757812-21.6875-29.851562l-13.476562-3.0625c-4.0625-.921876-8.09375 1.621093-9.015626 5.679687-.921874 4.058594 1.621094 8.09375 5.679688 9.015625l13.476562 3.058594c6.296876 1.429687 10.605469 7.359375 10.019532 13.789062l-5.253906 57.5625c-1.929688 21.148438 19.441406 36.636719 38.921874 28.277344l53.121094-22.78125c5.9375-2.546875 12.90625-.28125 16.210938 5.265625l29.585937 49.65625c10.851563 18.214844 37.242188 18.242187 48.109375 0l29.585938-49.65625c3.304687-5.546875 10.269531-7.8125 16.210937-5.265625l53.121094 22.78125c19.484375 8.359375 40.851563-7.132812 38.921875-28.277344l-5.25-57.5625c-.589844-6.429687 3.71875-12.359375 10.019531-13.789062l56.363281-12.789063c20.675782-4.695312 28.859376-29.785156 14.867188-45.761719zm0 0"/></svg>