<?xml version="1.0" encoding="iso-8859-1"?>
<!-- Generator: Adobe Illustrator 19.0.0, SVG Export Plug-In . SVG Version: 6.00 Build 0)  -->
<svg version="1.1" id="Layer_1" xmlns="http://www.w3.org/2000/svg" xmlns:xlink="http://www.w3.org/1999/xlink" x="0px" y="0px"
	 viewBox="0 0 512 512" style="enable-background:new 0 0 512 512;" xml:space="preserve">
<path style="fill:#FF6342;" d="M286.578,482.427c-11.458,0-22.226-4.456-30.317-12.546L110.015,323.633
	c-48.937-48.939-48.937-128.567,0-177.505c23.708-23.708,55.226-36.764,88.754-36.764c33.083,0,64.214,12.714,87.811,35.831
	c23.6-23.116,54.73-35.831,87.812-35.831c33.526,0,65.046,13.056,88.753,36.764c48.937,48.939,48.937,128.568,0,177.507
	L316.898,469.878C308.806,477.971,298.037,482.427,286.578,482.427z"/>
<path style="fill:#FE5025;" d="M282.951,469.881L136.704,323.633c-48.937-48.939-48.937-128.567,0-177.506
	c20.532-20.532,46.926-33.068,75.406-36.059c-4.403-0.463-8.853-0.704-13.342-0.704c-33.527,0-65.047,13.056-88.754,36.763
	c-48.937,48.939-48.937,128.567,0,177.506l146.247,146.248c8.091,8.09,18.859,12.546,30.317,12.546
	c4.604,0,9.092-0.731,13.346-2.116C293.594,478.247,287.791,474.72,282.951,469.881z"/>
<path style="fill:#FF9379;" d="M419.42,208.38c-13.613,0-24.69-11.075-24.69-24.69s11.075-24.69,24.69-24.69
	c13.614,0,24.69,11.075,24.69,24.69S433.033,208.38,419.42,208.38z"/>
<path style="fill:#FF7856;" d="M419.42,183.69c0-9.118,4.973-17.091,12.344-21.367c-3.634-2.108-7.85-3.321-12.344-3.321
	c-13.613,0-24.69,11.075-24.69,24.69c0,13.614,11.075,24.69,24.69,24.69c4.496,0,8.71-1.214,12.344-3.321
	C424.393,200.782,419.42,192.809,419.42,183.69z"/>
<path style="fill:#FF9379;" d="M286.718,393.535c-13.466,0-26.258-5.215-36.02-14.688l-72.174-70.034
	c-8.46-8.628-13.155-20.036-13.22-32.123c-0.063-11.594,4.171-22.697,11.921-31.264c8.89-9.826,21.108-15.239,34.404-15.239
	c12.453,0,24.135,4.824,32.893,13.583l42.312,42.312l42.312-42.312c8.759-8.76,20.36-13.584,32.665-13.584
	c12.266,0,23.824,4.802,32.545,13.522c17.879,17.879,18.011,47.1,0.296,65.14l-71.859,69.94
	C313.026,388.299,300.213,393.535,286.718,393.535z"/>
<path style="fill:#FF7856;" d="M277.857,378.847l-72.174-70.034c-8.46-8.628-13.155-20.036-13.22-32.123
	c-0.063-11.594,4.171-22.697,11.921-31.264c5.752-6.357,12.902-10.854,20.831-13.246c-4.344-1.312-8.909-1.993-13.584-1.993
	c-13.296,0-25.514,5.411-34.404,15.239c-7.751,8.566-11.985,19.668-11.921,31.264c0.066,12.086,4.761,23.496,13.22,32.123
	l72.174,70.034c9.761,9.472,22.553,14.688,36.02,14.688c4.641,0,9.196-0.633,13.58-1.832
	C291.96,389.421,284.255,385.055,277.857,378.847z"/>
<path style="fill:#FF6342;" d="M51.471,119.681c-24.199,0-43.885-19.687-43.885-43.885s19.687-43.885,43.885-43.885
	s43.885,19.687,43.885,43.885S75.669,119.681,51.471,119.681z"/>
<path style="fill:#FE5025;" d="M32.563,75.796c0-19.86,13.264-36.671,31.397-42.065c-3.961-1.178-8.151-1.82-12.488-1.82
	c-24.199,0-43.885,19.687-43.885,43.885s19.687,43.885,43.885,43.885c4.339,0,8.528-0.643,12.488-1.82
	C45.827,112.467,32.563,95.656,32.563,75.796z"/>
<path d="M472.396,139.808L472.396,139.808c-25.56-25.56-59.489-39.631-95.555-39.631c-0.024,0-0.053,0-0.078,0
	c-33.443,0.018-65.062,12.133-89.88,34.276c-53.212-47.408-135.072-45.631-186.059,5.355c-52.806,52.804-52.804,138.726,0,191.531
	c0.028,0.029,0.057,0.057,0.088,0.087l143.173,138.92c11.517,11.175,26.695,17.329,42.742,17.329c0.016,0,0.033,0,0.048,0
	c16.064-0.013,31.252-6.189,42.764-17.394l142.679-138.862c0.026-0.025,0.052-0.051,0.078-0.077
	C525.201,278.535,525.201,192.614,472.396,139.808z M460.938,319.81L318.303,458.632c-17.621,17.151-45.25,17.173-62.899,0.048
	L112.275,319.806c-46.425-46.472-46.411-122.05,0.042-168.504c46.379-46.38,121.784-46.485,168.385-0.352l21.987,30.548
	c1.587,2.206,4.078,3.38,6.602,3.38c1.645,0,3.304-0.497,4.741-1.532c3.643-2.621,4.47-7.7,1.849-11.343l-18.244-25.347
	c21.848-19.52,49.689-30.206,79.135-30.222c0.023,0,0.046,0,0.068,0c31.722,0,61.575,12.383,84.063,34.871
	c22.509,22.509,34.907,52.439,34.907,84.272C495.809,267.39,483.426,297.304,460.938,319.81z"/>
<path d="M399.722,238.349c-10.153-10.153-23.616-15.743-37.908-15.743c-14.331,0-27.835,5.613-38.028,15.805l-36.948,36.948
	l-36.949-36.949c-10.191-10.192-23.778-15.804-38.257-15.804c-15.466,0-29.682,6.298-40.029,17.734
	c-9.025,9.974-13.954,22.9-13.882,36.393c0.077,14.114,5.574,27.425,15.476,37.479c0.043,0.044,0.087,0.088,0.131,0.13l72.09,69.949
	c11.067,10.737,25.88,16.744,41.3,16.744h0.046c15.423,0,30.235-6.018,41.288-16.775l21.621-21.043
	c3.215-3.128,3.25-8.283,0.078-11.455c-0.038-0.038-0.077-0.077-0.115-0.115c-3.112-3.112-8.146-3.146-11.301-0.077l-21.587,21.01
	c-16.814,16.363-43.175,16.384-60.013,0.046l-72.02-69.881c-6.874-7.011-10.687-16.277-10.742-26.1
	c-0.051-9.423,3.386-18.444,9.681-25.4c7.225-7.987,17.162-12.385,27.976-12.385c10.137,0,19.642,3.923,26.765,11.044l42.696,42.696
	c3.174,3.174,8.32,3.174,11.493,0l42.695-42.695c7.122-7.122,16.546-11.044,26.535-11.044c9.952,0,19.332,3.901,26.415,10.983
	c14.541,14.541,14.641,38.271,0.241,52.937l-21.879,21.294c-3.215,3.128-3.25,8.282-0.078,11.455
	c0.038,0.038,0.077,0.077,0.115,0.115c3.112,3.112,8.146,3.146,11.301,0.077l21.942-21.355c0.04-0.039,0.079-0.078,0.118-0.117
	C420.693,293.249,420.574,259.201,399.722,238.349z"/>
<path d="M102.941,75.796c0-28.38-23.09-51.471-51.471-51.471S0,47.416,0,75.796s23.09,51.471,51.471,51.471
	S102.941,104.176,102.941,75.796z M51.471,111.013c-19.418,0-35.217-15.799-35.217-35.217s15.799-35.217,35.217-35.217
	s35.217,15.799,35.217,35.217S70.889,111.013,51.471,111.013z"/>
<path d="M419.42,151.416c-17.796,0-32.275,14.478-32.275,32.275s14.478,32.275,32.275,32.275c17.797,0,32.275-14.478,32.275-32.275
	S437.216,151.416,419.42,151.416z M419.42,199.711c-8.833,0-16.021-7.186-16.021-16.021s7.186-16.021,16.021-16.021
	s16.021,7.186,16.021,16.021S428.254,199.711,419.42,199.711z"/>
<g>
</g>
<g>
</g>
<g>
</g>
<g>
</g>
<g>
</g>
<g>
</g>
<g>
</g>
<g>
</g>
<g>
</g>
<g>
</g>
<g>
</g>
<g>
</g>
<g>
</g>
<g>
</g>
<g>
</g>
</svg>
