<svg height="512pt" viewBox="-74 0 512 512.00005" width="512pt" xmlns="http://www.w3.org/2000/svg"><path d="m355.671875 136.335938-65.492187-27.820313-14.503907-16.671875h-268.128906l65.332031 17.957031 14.660156 26.535157zm0 0" fill="#ff940c"/><path d="m72.878906 109.800781-65.332031-17.957031v368.15625l79.992187 44.492188v-368.15625zm0 0" fill="#f0a80e"/><path d="m7.546875 460 79.992187 44.492188v-42.167969l-79.992187-44.492188zm0 0" fill="#de9b0d"/><path d="m87.539062 136.335938v368.15625h268.132813v-368.15625zm0 0" fill="#ffb30f"/><path d="m315.671875 136.335938v276.875c0 28.324218-22.960937 51.285156-51.28125 51.285156h-176.851563v39.996094h268.132813v-368.15625zm0 0" fill="#e09e0d"/><path d="m355.625 206.675781c4.144531 0 7.5-3.359375 7.5-7.5-.015625-68.777343.683594-64.523437-1.558594-67.425781-.925781-1.199219-2.089844-1.871094-1.988281-1.796875-.890625-.554687 3.039063 1.222656-64.917969-27.671875l-13.371094-15.367188c-1.425781-1.636718-3.488281-2.574218-5.65625-2.574218h-19.472656c-9.011718-17.980469-26.664062-30.914063-47.476562-33.3125-3.679688-28.742188-28.296875-51.027344-58.023438-51.027344h-4.835937c-32.253907 0-58.496094 26.242188-58.496094 58.5v25.835938c-89.90625 0-80.46875-.65625-84.375 1.535156-1.917969 1.464844-2.9726562 3.714844-2.953125 6.035156v266.46875c0 4.140625 3.359375 7.5 7.5 7.5s7.5-3.359375 7.5-7.5v-256.699219l52.796875 14.515625 12.199219 22.074219v353.46875l-64.996094-36.148437v-67.882813c0-4.144531-3.359375-7.5-7.5-7.5s-7.5 3.355469-7.5 7.5v72.292969c0 2.722656 1.476562 5.230468 3.855469 6.554687 85.992187 47.597657 80.382812 45.433594 83.640625 45.433594h268.128906c4.144531 0 7.5-3.355469 7.5-7.5v-275.984375c0-4.140625-3.355469-7.5-7.5-7.5-4.140625 0-7.496094 3.359375-7.496094 7.5v268.484375h-253.132812v-353.15625h45.75v49.582031c0 4.144532 3.355468 7.5 7.496094 7.5 4.144531 0 7.5-3.355468 7.5-7.5v-49.582031h91.835937v49.582031c0 4.144532 3.359375 7.5 7.5 7.5s7.5-3.355468 7.5-7.5v-49.582031h85.550781v55.347656c0 4.140625 3.355469 7.5 7.496094 7.5zm-116.996094-122.339843h-29.46875v-18.101563c12.039063 1.988281 22.511719 8.671875 29.46875 18.101563zm-44.46875 0h-29.46875c6.957032-9.429688 17.429688-16.113282 29.46875-18.101563zm-91.832031-25.835938c0-23.988281 19.511719-43.5 43.496094-43.5h4.839843c21.484376 0 39.378907 15.65625 42.878907 36.164062-20.335938 2.71875-37.527344 15.507813-46.382813 33.171876h-44.832031zm-10.410156 70.328125-12.523438-22.660156c-2.445312-4.429688-6.847656-3.707031-16.3125-6.832031h78.890625c-1.910156 9.351562-.988281 15.035156-1.226562 29.492187zm63.824219 0c.324218-14.359375-.914063-20.210937 1.648437-29.492187h88.539063c2.554687 9.25 1.324218 15.003906 1.648437 29.492187zm106.835937 0c-.238281-14.445313.679687-20.136719-1.226563-29.492187h10.863282c12.394531 13.898437 12.238281 14.90625 14.988281 16.074218l31.585937 13.417969zm0 0"/></svg>