<svg height="511pt" viewBox="-80 1 511 511.99987" width="511pt" xmlns="http://www.w3.org/2000/svg"><path d="m258.980469 76.605469h-224.699219c-14.511719 0-26.273438 11.765625-26.273438 26.273437v375.335938c0 14.507812 11.761719 26.269531 26.273438 26.269531h224.699219c14.507812 0 26.273437-11.761719 26.273437-26.269531v-375.335938c0-14.507812-11.765625-26.273437-26.273437-26.273437zm0 0" fill="#919191"/><path d="m258.980469 76.605469h-25.941407v8.640625c4.226563 4.660156 6.800782 10.847656 6.800782 17.632812v375.335938c0 14.507812-11.765625 26.269531-26.273438 26.269531h45.414063c14.511719 0 26.273437-11.761719 26.273437-26.269531v-375.335938c0-14.507812-11.765625-26.273437-26.273437-26.273437zm0 0" fill="#7a7a7a"/><path d="m243.714844 504.488281h-199.175782v-203.015625c0-10.316406 8.367188-18.683594 18.683594-18.683594h161.8125c10.316406 0 18.683594 8.363282 18.683594 18.683594v203.015625zm0 0" fill="#68a1d7"/><path d="m225.03125 282.789062h-37.347656c10.320312 0 18.683594 8.363282 18.683594 18.683594v203.011719h37.347656v-203.011719c0-10.316406-8.363282-18.683594-18.683594-18.683594zm0 0" fill="#5d8fbf"/><g fill="#d6d6d6"><path d="m78.757812 316.820312h28.019532v28.019532h-28.019532zm0 0"/><path d="m132.621094 316.820312h28.019531v28.019532h-28.019531zm0 0"/><path d="m186.480469 316.820312h28.023437v28.019532h-28.023437zm0 0"/><path d="m78.757812 371.148438h28.019532v28.019531h-28.019532zm0 0"/><path d="m132.621094 371.148438h28.019531v28.019531h-28.019531zm0 0"/><path d="m186.480469 371.148438h28.023437v28.019531h-28.023437zm0 0"/><path d="m78.757812 425.476562h28.019532v28.023438h-28.019532zm0 0"/><path d="m132.621094 425.476562h28.019531v28.023438h-28.019531zm0 0"/><path d="m186.480469 425.476562h28.023437v28.023438h-28.023437zm0 0"/></g><path d="m220.695312 49.917969h-148.128906c-6.820312 0-12.34375 5.527343-12.34375 12.34375v47.375c0 6.816406 5.523438 12.34375 12.34375 12.34375h148.128906c6.820313 0 12.34375-5.527344 12.34375-12.34375v-47.375c0-6.816407-5.527343-12.34375-12.34375-12.34375zm0 0" fill="#bdbdbd"/><path d="m104.894531 9.640625 6.4375 4.542969c.765625.535156 1.707031.535156 2.46875 0l8.882813-6.269532c.765625-.535156 1.707031-.535156 2.46875 0l8.882812 6.265626c.761719.539062 1.703125.539062 2.464844 0l8.882812-6.265626c.765626-.535156 1.707032-.535156 2.46875 0l8.886719 6.269532c.765625.535156 1.707031.535156 2.46875 0l8.882813-6.269532c.761718-.535156 1.707031-.535156 2.46875 0l8.890625 6.269532c.761719.539062 1.707031.539062 2.46875 0l6.449219-4.542969c1.628906-1.148437 3.675781.269531 3.675781 2.546875v79.933594h-90.828125v-79.933594c0-2.277344 2.050781-3.695312 3.679687-2.546875zm0 0" fill="#eeedee"/><path d="m101.214844 63.160156h90.832031v28.960938h-90.832031zm0 0" fill="#cfcfcf"/><path d="m324.289062 138.660156h-39.035156v308.273438h39.035156c10.777344 0 19.515626-8.734375 19.515626-19.515625v-269.238281c0-10.777344-8.738282-19.519532-19.515626-19.519532zm0 0" fill="#5c5c5c"/><path d="m285.253906 138.660156h28.773438v308.273438h-28.773438zm0 0" fill="#4a4a4a"/><path d="m217.027344 150.007812h-140.792969c-8.84375 0-16.015625 7.167969-16.015625 16.011719v65.390625c0 8.847656 7.171875 16.015625 16.015625 16.015625h140.792969c8.84375 0 16.011718-7.167969 16.011718-16.015625v-65.390625c0-8.84375-7.167968-16.011719-16.011718-16.011719zm0 0" fill="#58caee"/><path d="m217.027344 150.007812h-32.550782c8.847657 0 16.015626 7.167969 16.015626 16.011719v65.390625c0 8.847656-7.167969 16.015625-16.015626 16.015625h32.550782c8.84375 0 16.011718-7.167969 16.011718-16.015625v-65.390625c0-8.84375-7.167968-16.011719-16.011718-16.011719zm0 0" fill="#4cafcf"/><path d="m106.777344 309.320312h-28.019532c-4.144531 0-7.507812 3.359376-7.507812 7.507813v28.019531c0 4.148438 3.363281 7.507813 7.507812 7.507813h28.019532c4.148437 0 7.507812-3.359375 7.507812-7.507813v-28.019531c0-4.148437-3.359375-7.507813-7.507812-7.507813zm-7.503906 28.019532h-13.007813v-13.007813h13.007813zm0 0"/><path d="m160.640625 309.320312h-28.019531c-4.148438 0-7.507813 3.359376-7.507813 7.507813v28.019531c0 4.148438 3.359375 7.507813 7.507813 7.507813h28.019531c4.144531 0 7.507813-3.359375 7.507813-7.507813v-28.019531c0-4.148437-3.363282-7.507813-7.507813-7.507813zm-7.507813 28.019532h-13.007812v-13.007813h13.007812zm0 0"/><path d="m214.503906 309.320312h-28.023437c-4.144531 0-7.503907 3.359376-7.503907 7.507813v28.019531c0 4.148438 3.359376 7.507813 7.503907 7.507813h28.023437c4.144532 0 7.503906-3.359375 7.503906-7.507813v-28.019531c0-4.148437-3.359374-7.507813-7.503906-7.507813zm-7.507812 28.019532h-13.007813v-13.007813h13.007813zm0 0"/><path d="m106.777344 363.648438h-28.019532c-4.144531 0-7.507812 3.359374-7.507812 7.507812v28.019531c0 4.148438 3.363281 7.507813 7.507812 7.507813h28.019532c4.148437 0 7.507812-3.359375 7.507812-7.507813v-28.019531c0-4.148438-3.359375-7.507812-7.507812-7.507812zm-7.503906 28.019531h-13.007813v-13.003907h13.007813zm0 0"/><path d="m160.640625 363.648438h-28.019531c-4.148438 0-7.507813 3.359374-7.507813 7.507812v28.019531c0 4.148438 3.359375 7.507813 7.507813 7.507813h28.019531c4.144531 0 7.507813-3.359375 7.507813-7.507813v-28.019531c0-4.148438-3.363282-7.507812-7.507813-7.507812zm-7.507813 28.019531h-13.007812v-13.003907h13.007812zm0 0"/><path d="m214.503906 363.648438h-28.023437c-4.144531 0-7.503907 3.359374-7.503907 7.507812v28.019531c0 4.148438 3.359376 7.507813 7.503907 7.507813h28.023437c4.144532 0 7.503906-3.359375 7.503906-7.507813v-28.019531c0-4.148438-3.359374-7.507812-7.503906-7.507812zm-7.507812 28.019531h-13.007813v-13.003907h13.007813zm0 0"/><path d="m106.777344 417.976562h-28.019532c-4.144531 0-7.507812 3.359376-7.507812 7.507813v28.019531c0 4.148438 3.363281 7.507813 7.507812 7.507813h28.019532c4.148437 0 7.507812-3.359375 7.507812-7.507813v-28.019531c0-4.148437-3.359375-7.507813-7.507812-7.507813zm-7.503906 28.023438h-13.007813v-13.007812h13.007813zm0 0"/><path d="m160.640625 417.976562h-28.019531c-4.148438 0-7.507813 3.359376-7.507813 7.507813v28.019531c0 4.148438 3.359375 7.507813 7.507813 7.507813h28.019531c4.144531 0 7.507813-3.359375 7.507813-7.507813v-28.019531c0-4.148437-3.363282-7.507813-7.507813-7.507813zm-7.507813 28.023438h-13.007812v-13.007812h13.007812zm0 0"/><path d="m214.503906 417.976562h-28.023437c-4.144531 0-7.503907 3.359376-7.503907 7.507813v28.019531c0 4.148438 3.359376 7.507813 7.503907 7.507813h28.023437c4.144532 0 7.503906-3.359375 7.503906-7.507813v-28.019531c0-4.148437-3.359374-7.507813-7.503906-7.507813zm-7.507812 28.023438h-13.007813v-13.007812h13.007813zm0 0"/><path d="m306.523438 182.042969v217.132812c0 4.148438 3.359374 7.507813 7.503906 7.507813 4.148437 0 7.507812-3.359375 7.507812-7.507813v-217.132812c0-4.148438-3.359375-7.507813-7.507812-7.507813-4.144532 0-7.503906 3.359375-7.503906 7.507813zm0 0"/><path d="m76.234375 157.519531h70.394531c4.144532 0 7.507813-3.359375 7.507813-7.507812 0-4.148438-3.363281-7.507813-7.507813-7.507813h-70.394531c-12.96875 0-23.519531 10.550782-23.519531 23.523438v65.390625c0 12.96875 10.550781 23.519531 23.519531 23.519531h140.792969c12.96875 0 23.519531-10.550781 23.519531-23.519531v-65.390625c0-12.972656-10.550781-23.523438-23.519531-23.523438h-42.375c-4.144532 0-7.503906 3.359375-7.503906 7.507813 0 4.148437 3.359374 7.507812 7.503906 7.507812h42.375c4.691406 0 8.507812 3.816407 8.507812 8.507813v65.390625c0 4.691406-3.816406 8.507812-8.507812 8.507812h-140.792969c-4.691406 0-8.507813-3.816406-8.507813-8.507812v-65.390625c0-4.691406 3.816407-8.507813 8.507813-8.507813zm0 0"/><path d="m343.804688 271.035156c4.148437 0 7.507812-3.359375 7.507812-7.503906v-105.34375c0-14.902344-12.125-27.023438-27.023438-27.023438h-31.527343v-28.277343c0-18.625-15.15625-33.78125-33.78125-33.78125h-18.433594v-6.835938c0-10.949219-8.90625-19.851562-19.851563-19.851562h-21.144531v-30.226563c0-4.011718-2.121093-7.605468-5.53125-9.375-6.785156-3.519531-11.738281 2.316406-13.332031 3.058594l-5.800781-4.089844c-3.378907-2.378906-7.742188-2.378906-11.121094.003906l-5.792969 4.085938-5.792968-4.089844c-3.378907-2.378906-7.742188-2.378906-11.121094.003906l-5.789063 4.082032-5.789062-4.082032c-3.378907-2.382812-7.742188-2.382812-11.121094 0l-5.792969 4.085938-3.34375-2.359375c0-.003906-.003906-.003906-.003906-.003906-6.550781-4.617188-15.511719.222656-15.511719 8.683593v30.222657h-21.140625c-10.949218 0-19.851562 8.902343-19.851562 19.851562v6.835938h-18.433594c-18.625 0-33.78125 15.15625-33.78125 33.78125v301.351562c0 4.144531 3.363281 7.503907 7.507812 7.503907 4.144532 0 7.507813-3.359376 7.507813-7.503907v-301.351562c0-10.347657 8.417969-18.765625 18.765625-18.765625h18.433594v25.523437c0 10.945313 8.902344 19.847657 19.851562 19.847657h148.128906c10.945313 0 19.851563-8.902344 19.851563-19.847657v-25.523437h18.433594c10.347656 0 18.765625 8.417968 18.765625 18.765625v375.332031c0 10.347656-8.417969 18.769531-18.765625 18.769531h-7.757813v-195.507812c0-14.441407-11.746094-26.191407-26.191406-26.191407h-161.808594c-14.441406 0-26.191406 11.75-26.191406 26.191407v195.507812h-2.75c-10.347656 0-18.769531-8.421875-18.769531-18.769531v-45.957031c0-4.144531-3.359375-7.507813-7.503907-7.507813-4.148437 0-7.507812 3.363282-7.507812 7.507813v45.957031c0 18.625 15.152344 33.78125 33.78125 33.78125h224.699219c18.625 0 33.777343-15.15625 33.777343-33.78125v-23.769531h31.527344c14.902344 0 27.027344-12.125 27.027344-27.023438v-135.871093c0-4.148438-3.363281-7.507813-7.507812-7.507813-4.148438 0-7.507813 3.359375-7.507813 7.507813v135.871093c0 6.621094-5.386719 12.007813-12.011719 12.007813h-31.527344v-293.257813h31.527344c6.625 0 12.011719 5.386719 12.011719 12.011719v105.34375c0 4.144531 3.363281 7.503906 7.507813 7.503906zm-235.082032-249.738281c7.023438 3.09375 11.527344-3.125 15.195313-5.058594l5.785156 4.082031c3.378906 2.386719 7.75 2.386719 11.125 0l5.792969-4.082031 5.792968 4.085938c3.378907 2.378906 7.742188 2.378906 11.121094 0l5.792969-4.089844c3.6875 1.945313 8.183594 8.160156 15.210937 5.054687v63.332032h-75.816406zm116.8125 88.347656c0 2.664063-2.171875 4.835938-4.839844 4.835938h-148.128906c-2.667968 0-4.839844-2.171875-4.839844-4.835938v-47.375c0-2.667969 2.171876-4.839843 4.839844-4.839843h21.140625v27.191406h-9.382812c-4.144531 0-7.503907 3.359375-7.503907 7.507812 0 4.144532 3.359376 7.503906 7.503907 7.503906h124.613281c4.144531 0 7.503906-3.359374 7.503906-7.503906 0-4.148437-3.359375-7.507812-7.503906-7.507812h-9.386719v-27.191406h21.144531c2.667969 0 4.839844 2.171874 4.839844 4.839843zm-173.488281 387.34375v-195.507812c0-6.164063 5.011719-11.175781 11.175781-11.175781h161.8125c6.160156 0 11.175782 5.011718 11.175782 11.175781v195.507812zm0 0"/></svg>